<?xml version="1.0" encoding="UTF-8" standalone="no"?>
<!-- Created with Inkscape (http://www.inkscape.org/) -->

<svg
   width="333"
   height="166.5"
   viewBox="0 0 88.106249 44.053126"
   version="1.1"
   id="svg5"
   inkscape:version="1.1.2 (b8e25be833, 2022-02-05)"
   sodipodi:docname="placeholder_medwidget_1.svg"
   xmlns:inkscape="http://www.inkscape.org/namespaces/inkscape"
   xmlns:sodipodi="http://sodipodi.sourceforge.net/DTD/sodipodi-0.dtd"
   xmlns:xlink="http://www.w3.org/1999/xlink"
   xmlns="http://www.w3.org/2000/svg"
   xmlns:svg="http://www.w3.org/2000/svg">
  <sodipodi:namedview
     id="namedview7"
     pagecolor="#505050"
     bordercolor="#ffffff"
     borderopacity="1"
     inkscape:pageshadow="0"
     inkscape:pageopacity="0"
     inkscape:pagecheckerboard="1"
     inkscape:document-units="px"
     showgrid="false"
     units="px"
     inkscape:zoom="2.8284271"
     inkscape:cx="119.32427"
     inkscape:cy="99.348503"
     inkscape:window-width="1920"
     inkscape:window-height="1017"
     inkscape:window-x="-8"
     inkscape:window-y="-8"
     inkscape:window-maximized="1"
     inkscape:current-layer="layer1" />
  <defs
     id="defs2">
    <linearGradient
       id="linearGradient186424"
       inkscape:swatch="solid">
      <stop
         style="stop-color:#616200;stop-opacity:1;"
         offset="0"
         id="stop186422" />
    </linearGradient>
    <rect
       x="22.079035"
       y="125.29852"
       width="269.36423"
       height="115.36296"
       id="rect3097" />
    <linearGradient
       inkscape:collect="always"
       xlink:href="#linearGradient186424"
       id="linearGradient215616"
       gradientUnits="userSpaceOnUse"
       x1="5.262809"
       y1="21.189113"
       x2="68.24264"
       y2="21.189113"
       gradientTransform="translate(0.18708867,1.4967094)" />
  </defs>
  <g
     inkscape:label="Capa 1"
     inkscape:groupmode="layer"
     id="layer1">
    <rect
       style="fill:#f5f3cd;fill-opacity:1;stroke-width:0;stroke-opacity:0.0387597"
       id="rect876"
       width="88.106247"
       height="44.053123"
       x="2.220446e-16"
       y="0" />
    <text
       xml:space="preserve"
       transform="scale(0.26458333)"
       id="text3095"
       style="font-style:normal;font-variant:normal;font-weight:normal;font-stretch:normal;font-size:26.6667px;line-height:1.25;font-family:System-ui;-inkscape-font-specification:System-ui;word-spacing:0px;white-space:pre;shape-inside:url(#rect3097)" />
    <text
       xml:space="preserve"
       style="font-size:7.05556px;line-height:0;font-family:'Noto Sans';-inkscape-font-specification:'Noto Sans';word-spacing:0px;fill:url(#linearGradient215616);fill-opacity:1;stroke-width:0.264583"
       x="5.2983131"
       y="11.787255"
       id="text9909"><tspan
         style="font-style:normal;font-variant:normal;font-weight:bold;font-stretch:normal;line-height:1.95;font-family:monospace;-inkscape-font-specification:'monospace Bold';fill:url(#linearGradient215616);fill-opacity:1;stroke-width:0.264583"
         sodipodi:role="line"
         id="tspan82997"
         x="5.2983131"
         y="11.787255">ClotCode JAM 22</tspan><tspan
         sodipodi:role="line"
         style="font-style:normal;font-variant:normal;font-weight:normal;font-stretch:normal;font-size:4.02167px;line-height:1.25;font-family:monospace;-inkscape-font-specification:monospace;fill:url(#linearGradient215616);fill-opacity:1;stroke-width:0.264583"
         x="5.2983131"
         y="20.39187"
         id="tspan34947">Compite y mejora</tspan><tspan
         sodipodi:role="line"
         style="font-style:normal;font-variant:normal;font-weight:normal;font-stretch:normal;font-size:4.02167px;line-height:1.25;font-family:monospace;-inkscape-font-specification:monospace;fill:url(#linearGradient215616);fill-opacity:1;stroke-width:0.264583"
         x="5.2983131"
         y="25.418957"
         id="tspan49395">tus habilidades </tspan><tspan
         style="font-style:normal;font-variant:normal;font-weight:normal;font-stretch:normal;font-size:4.02167px;line-height:1.25;font-family:monospace;-inkscape-font-specification:monospace;fill:url(#linearGradient215616);fill-opacity:1;stroke-width:0.264583"
         sodipodi:role="line"
         x="5.2983131"
         y="30.446045"
         id="tspan168490">como desarrollador.</tspan><tspan
         style="font-style:italic;font-variant:normal;font-weight:normal;font-stretch:normal;font-size:2.11667px;line-height:4.05;font-family:monospace;-inkscape-font-specification:monospace;fill:url(#linearGradient215616);fill-opacity:1;stroke:#edf1e4;stroke-width:0.264583;stroke-opacity:0"
         sodipodi:role="line"
         x="5.2983131"
         y="36.750988"
         id="tspan145140">~$ sudo snap install clotjam</tspan></text>
    <g
       style="fill:#616200"
       id="g109912"
       transform="matrix(0.26458333,0,0,0.26458333,64.411276,31.087463)">
      <g
         id="g109893">
        <path
           d="M 0,0 H 24 V 24 H 0 Z"
           fill="none"
           id="path109891" />
      </g>
      <g
         id="g109899">
        <g
           id="g109897">
          <path
             d="M 17.6,9.48 19.44,6.3 C 19.6,5.99 19.48,5.61 19.18,5.45 18.89,5.3 18.53,5.39 18.35,5.67 L 16.47,8.91 C 13.61,7.7 10.39,7.7 7.53,8.91 L 5.65,5.67 C 5.46,5.38 5.07,5.29 4.78,5.47 4.5,5.65 4.41,6.01 4.56,6.3 L 6.4,9.48 C 3.3,11.25 1.28,14.44 1,18 H 23 C 22.72,14.44 20.7,11.25 17.6,9.48 Z M 7,15.25 c -0.69,0 -1.25,-0.56 -1.25,-1.25 0,-0.69 0.56,-1.25 1.25,-1.25 0.69,0 1.25,0.56 1.25,1.25 0,0.69 -0.56,1.25 -1.25,1.25 z m 10,0 c -0.69,0 -1.25,-0.56 -1.25,-1.25 0,-0.69 0.56,-1.25 1.25,-1.25 0.69,0 1.25,0.56 1.25,1.25 0,0.69 -0.56,1.25 -1.25,1.25 z"
             id="path109895" />
        </g>
      </g>
    </g>
    <g
       style="fill:#616200"
       id="g109926"
       transform="matrix(0.68897157,0,0,0.68897157,65.730432,11.541279)">
      <path
         d="M 0,0 H 24 V 24 H 0 Z"
         fill="none"
         id="path109914" />
      <path
         d="M 9.4,16.6 4.8,12 9.4,7.4 8,6 2,12 8,18 Z m 5.2,0 L 19.2,12 14.6,7.4 16,6 l 6,6 -6,6 z"
         id="path109916" />
    </g>
    <g
       style="fill:#616200"
       id="g109946"
       transform="matrix(0.26458333,0,0,0.26458333,54.487058,27.24638)">
      <g
         id="g109930">
        <rect
           fill="none"
           height="24"
           width="24"
           id="rect109928"
           x="0"
           y="0" />
      </g>
      <g
         id="g109934">
        <path
           d="m 12,14 v -1 h 1.5 v 0.5 h 2 v -1 H 13 c -0.55,0 -1,-0.45 -1,-1 V 10 c 0,-0.55 0.45,-1 1,-1 h 3 c 0.55,0 1,0.45 1,1 v 1 h -1.5 v -0.5 h -2 v 1 H 16 c 0.55,0 1,0.45 1,1 V 14 c 0,0.55 -0.45,1 -1,1 h -3 c -0.55,0 -1,-0.45 -1,-1 z M 9,9 v 4.5 H 7.5 v -1 H 6 v 1 C 6,14.33 6.67,15 7.5,15 H 9 c 0.83,0 1.5,-0.67 1.5,-1.5 V 9 C 10.5,9 9.83,9 9,9 Z"
           id="path109932" />
      </g>
    </g>
    <g
       style="fill:#616200"
       id="g110060"
       transform="matrix(0.26458333,0,0,0.26458333,56.411796,19.1273)">
      <g
         id="g110044">
        <rect
           fill="none"
           height="24"
           width="24"
           id="rect110042"
           x="0"
           y="0" />
      </g>
      <g
         id="g110048">
        <path
           d="M 20,4 H 4 C 2.89,4 2,4.9 2,6 v 12 c 0,1.1 0.89,2 2,2 h 16 c 1.1,0 2,-0.9 2,-2 V 6 C 22,4.9 21.11,4 20,4 Z m 0,14 H 4 V 8 h 16 z m -2,-1 h -6 v -2 h 6 z M 7.5,17 6.09,15.59 8.67,13 6.08,10.41 7.5,9 l 4,4 z"
           id="path110046" />
      </g>
    </g>
    <g
       style="fill:#616200"
       id="g110080"
       transform="matrix(0.26458333,0,0,0.26458333,75.91575,28.076597)">
      <g
         id="g110064">
        <rect
           fill="none"
           height="24"
           width="24"
           id="rect110062"
           x="0"
           y="0" />
      </g>
      <g
         id="g110068">
        <path
           d="m 13,9 h 1.5 v 6 H 13 V 12.5 H 11 V 15 H 9.5 V 9 H 11 v 2 h 2 z m -5,1.5 v 1 C 8,12.3 7.3,13 6.5,13 h -2 v 2 H 3 V 9 H 6.5 C 7.3,9 8,9.7 8,10.5 Z m -1.5,0 h -2 v 1 h 2 z m 15,0 v 1 c 0,0.8 -0.7,1.5 -1.5,1.5 h -2 v 2 H 16.5 V 9 H 20 c 0.8,0 1.5,0.7 1.5,1.5 z m -1.5,0 h -2 v 1 h 2 z"
           id="path110066" />
      </g>
    </g>
  </g>
  <g
     inkscape:groupmode="layer"
     id="layer3"
     inkscape:label="banderita"
     style="display:inline" />
  <g
     inkscape:groupmode="layer"
     id="layer2"
     inkscape:label="Capa 2" />
</svg>
